<mxfile host="app.diagrams.net" modified="2024-08-06T13:59:41.664Z" agent="Mozilla/5.0 (X11; Linux x86_64; rv:128.0) Gecko/20100101 Firefox/128.0" etag="nvtsWTmICnw4uKqCY2U_" version="23.1.1" type="device">
  <diagram id="C5RBs43oDa-KdzZeNtuy" name="Page-1">
    <mxGraphModel dx="1685" dy="894" grid="1" gridSize="10" guides="1" tooltips="1" connect="1" arrows="1" fold="1" page="1" pageScale="1" pageWidth="827" pageHeight="1169" math="0" shadow="0">
      <root>
        <mxCell id="WIyWlLk6GJQsqaUBKTNV-0" />
        <mxCell id="WIyWlLk6GJQsqaUBKTNV-1" parent="WIyWlLk6GJQsqaUBKTNV-0" />
        <mxCell id="mqRZgJOydVEEGR6u9X0a-2" style="edgeStyle=orthogonalEdgeStyle;rounded=0;orthogonalLoop=1;jettySize=auto;html=1;exitX=0.5;exitY=1;exitDx=0;exitDy=0;entryX=0.5;entryY=0;entryDx=0;entryDy=0;" edge="1" parent="WIyWlLk6GJQsqaUBKTNV-1" source="WIyWlLk6GJQsqaUBKTNV-3" target="mqRZgJOydVEEGR6u9X0a-1">
          <mxGeometry relative="1" as="geometry" />
        </mxCell>
        <mxCell id="WIyWlLk6GJQsqaUBKTNV-3" value="Election message arrives" style="rounded=1;whiteSpace=wrap;html=1;fontSize=12;glass=0;strokeWidth=1;shadow=0;" parent="WIyWlLk6GJQsqaUBKTNV-1" vertex="1">
          <mxGeometry x="354" y="20" width="120" height="40" as="geometry" />
        </mxCell>
        <mxCell id="mqRZgJOydVEEGR6u9X0a-4" style="edgeStyle=orthogonalEdgeStyle;rounded=0;orthogonalLoop=1;jettySize=auto;html=1;exitX=0.5;exitY=1;exitDx=0;exitDy=0;entryX=0.5;entryY=0;entryDx=0;entryDy=0;" edge="1" parent="WIyWlLk6GJQsqaUBKTNV-1" source="mqRZgJOydVEEGR6u9X0a-1" target="mqRZgJOydVEEGR6u9X0a-3">
          <mxGeometry relative="1" as="geometry" />
        </mxCell>
        <mxCell id="mqRZgJOydVEEGR6u9X0a-1" value="Sends ElectionACK to the sender" style="rounded=1;whiteSpace=wrap;html=1;fontSize=12;glass=0;strokeWidth=1;shadow=0;" vertex="1" parent="WIyWlLk6GJQsqaUBKTNV-1">
          <mxGeometry x="354" y="110" width="120" height="40" as="geometry" />
        </mxCell>
        <mxCell id="mqRZgJOydVEEGR6u9X0a-6" style="edgeStyle=orthogonalEdgeStyle;rounded=0;orthogonalLoop=1;jettySize=auto;html=1;exitX=0;exitY=0.5;exitDx=0;exitDy=0;entryX=0.5;entryY=0;entryDx=0;entryDy=0;horizontal=1;comic=0;" edge="1" parent="WIyWlLk6GJQsqaUBKTNV-1" source="mqRZgJOydVEEGR6u9X0a-3" target="mqRZgJOydVEEGR6u9X0a-5">
          <mxGeometry relative="1" as="geometry" />
        </mxCell>
        <mxCell id="mqRZgJOydVEEGR6u9X0a-11" value="Yes" style="edgeLabel;html=1;align=center;verticalAlign=middle;resizable=0;points=[];" vertex="1" connectable="0" parent="mqRZgJOydVEEGR6u9X0a-6">
          <mxGeometry x="-0.1316" y="1" relative="1" as="geometry">
            <mxPoint as="offset" />
          </mxGeometry>
        </mxCell>
        <mxCell id="mqRZgJOydVEEGR6u9X0a-41" style="edgeStyle=orthogonalEdgeStyle;rounded=0;orthogonalLoop=1;jettySize=auto;html=1;exitX=1;exitY=0.5;exitDx=0;exitDy=0;entryX=0.5;entryY=0;entryDx=0;entryDy=0;" edge="1" parent="WIyWlLk6GJQsqaUBKTNV-1" source="mqRZgJOydVEEGR6u9X0a-3" target="mqRZgJOydVEEGR6u9X0a-37">
          <mxGeometry relative="1" as="geometry">
            <mxPoint x="655" y="280" as="targetPoint" />
          </mxGeometry>
        </mxCell>
        <mxCell id="mqRZgJOydVEEGR6u9X0a-42" value="No" style="edgeLabel;html=1;align=center;verticalAlign=middle;resizable=0;points=[];" vertex="1" connectable="0" parent="mqRZgJOydVEEGR6u9X0a-41">
          <mxGeometry x="-0.1589" relative="1" as="geometry">
            <mxPoint as="offset" />
          </mxGeometry>
        </mxCell>
        <mxCell id="mqRZgJOydVEEGR6u9X0a-3" value="Already in &lt;br&gt;election state?" style="rhombus;whiteSpace=wrap;html=1;align=center;" vertex="1" parent="WIyWlLk6GJQsqaUBKTNV-1">
          <mxGeometry x="359.25" y="200" width="109.5" height="70" as="geometry" />
        </mxCell>
        <mxCell id="mqRZgJOydVEEGR6u9X0a-13" style="edgeStyle=orthogonalEdgeStyle;rounded=0;orthogonalLoop=1;jettySize=auto;html=1;exitX=1;exitY=0.5;exitDx=0;exitDy=0;entryX=0;entryY=0.5;entryDx=0;entryDy=0;" edge="1" parent="WIyWlLk6GJQsqaUBKTNV-1" source="mqRZgJOydVEEGR6u9X0a-5" target="mqRZgJOydVEEGR6u9X0a-12">
          <mxGeometry relative="1" as="geometry" />
        </mxCell>
        <mxCell id="mqRZgJOydVEEGR6u9X0a-14" value="Yes" style="edgeLabel;html=1;align=center;verticalAlign=middle;resizable=0;points=[];" vertex="1" connectable="0" parent="mqRZgJOydVEEGR6u9X0a-13">
          <mxGeometry x="-0.25" y="1" relative="1" as="geometry">
            <mxPoint as="offset" />
          </mxGeometry>
        </mxCell>
        <mxCell id="mqRZgJOydVEEGR6u9X0a-16" style="edgeStyle=orthogonalEdgeStyle;rounded=0;orthogonalLoop=1;jettySize=auto;html=1;exitX=0.5;exitY=1;exitDx=0;exitDy=0;" edge="1" parent="WIyWlLk6GJQsqaUBKTNV-1" source="mqRZgJOydVEEGR6u9X0a-5" target="mqRZgJOydVEEGR6u9X0a-15">
          <mxGeometry relative="1" as="geometry" />
        </mxCell>
        <mxCell id="mqRZgJOydVEEGR6u9X0a-17" value="No" style="edgeLabel;html=1;align=center;verticalAlign=middle;resizable=0;points=[];" vertex="1" connectable="0" parent="mqRZgJOydVEEGR6u9X0a-16">
          <mxGeometry x="-0.0533" y="-1" relative="1" as="geometry">
            <mxPoint as="offset" />
          </mxGeometry>
        </mxCell>
        <mxCell id="mqRZgJOydVEEGR6u9X0a-5" value="Is the message id&lt;br&gt;equals to my id?" style="rhombus;whiteSpace=wrap;html=1;align=center;" vertex="1" parent="WIyWlLk6GJQsqaUBKTNV-1">
          <mxGeometry x="70" y="280" width="130" height="100" as="geometry" />
        </mxCell>
        <mxCell id="mqRZgJOydVEEGR6u9X0a-26" style="edgeStyle=orthogonalEdgeStyle;rounded=0;orthogonalLoop=1;jettySize=auto;html=1;exitX=0.5;exitY=1;exitDx=0;exitDy=0;entryX=0.5;entryY=0;entryDx=0;entryDy=0;" edge="1" parent="WIyWlLk6GJQsqaUBKTNV-1" source="mqRZgJOydVEEGR6u9X0a-12" target="mqRZgJOydVEEGR6u9X0a-25">
          <mxGeometry relative="1" as="geometry" />
        </mxCell>
        <mxCell id="mqRZgJOydVEEGR6u9X0a-12" value="Become new coordinator" style="rounded=1;whiteSpace=wrap;html=1;fontSize=12;glass=0;strokeWidth=1;shadow=0;" vertex="1" parent="WIyWlLk6GJQsqaUBKTNV-1">
          <mxGeometry x="280" y="310" width="80" height="40" as="geometry" />
        </mxCell>
        <mxCell id="mqRZgJOydVEEGR6u9X0a-19" style="edgeStyle=orthogonalEdgeStyle;rounded=0;orthogonalLoop=1;jettySize=auto;html=1;exitX=1;exitY=0.5;exitDx=0;exitDy=0;" edge="1" parent="WIyWlLk6GJQsqaUBKTNV-1" source="mqRZgJOydVEEGR6u9X0a-15" target="mqRZgJOydVEEGR6u9X0a-18">
          <mxGeometry relative="1" as="geometry" />
        </mxCell>
        <mxCell id="mqRZgJOydVEEGR6u9X0a-21" value="Yes" style="edgeLabel;html=1;align=center;verticalAlign=middle;resizable=0;points=[];" vertex="1" connectable="0" parent="mqRZgJOydVEEGR6u9X0a-19">
          <mxGeometry x="-0.0705" y="1" relative="1" as="geometry">
            <mxPoint as="offset" />
          </mxGeometry>
        </mxCell>
        <mxCell id="mqRZgJOydVEEGR6u9X0a-24" style="edgeStyle=orthogonalEdgeStyle;rounded=0;orthogonalLoop=1;jettySize=auto;html=1;exitX=0.5;exitY=1;exitDx=0;exitDy=0;entryX=0.5;entryY=0;entryDx=0;entryDy=0;" edge="1" parent="WIyWlLk6GJQsqaUBKTNV-1" source="mqRZgJOydVEEGR6u9X0a-15" target="mqRZgJOydVEEGR6u9X0a-23">
          <mxGeometry relative="1" as="geometry" />
        </mxCell>
        <mxCell id="mqRZgJOydVEEGR6u9X0a-15" value="Is the received candidate&lt;br&gt;better than the store one?" style="rhombus;whiteSpace=wrap;html=1;align=center;" vertex="1" parent="WIyWlLk6GJQsqaUBKTNV-1">
          <mxGeometry x="40" y="430" width="190" height="90" as="geometry" />
        </mxCell>
        <mxCell id="mqRZgJOydVEEGR6u9X0a-18" value="Forward received message" style="rounded=1;whiteSpace=wrap;html=1;fontSize=12;glass=0;strokeWidth=1;shadow=0;" vertex="1" parent="WIyWlLk6GJQsqaUBKTNV-1">
          <mxGeometry x="374" y="455" width="80" height="40" as="geometry" />
        </mxCell>
        <mxCell id="mqRZgJOydVEEGR6u9X0a-23" value="Do nothing" style="rounded=1;whiteSpace=wrap;html=1;fontSize=12;glass=0;strokeWidth=1;shadow=0;" vertex="1" parent="WIyWlLk6GJQsqaUBKTNV-1">
          <mxGeometry x="95" y="565" width="80" height="40" as="geometry" />
        </mxCell>
        <mxCell id="mqRZgJOydVEEGR6u9X0a-25" value="Multicast synch" style="rounded=1;whiteSpace=wrap;html=1;fontSize=12;glass=0;strokeWidth=1;shadow=0;" vertex="1" parent="WIyWlLk6GJQsqaUBKTNV-1">
          <mxGeometry x="279.25" y="380" width="80" height="40" as="geometry" />
        </mxCell>
        <mxCell id="mqRZgJOydVEEGR6u9X0a-43" style="edgeStyle=orthogonalEdgeStyle;rounded=0;orthogonalLoop=1;jettySize=auto;html=1;exitX=0;exitY=0.5;exitDx=0;exitDy=0;entryX=0.5;entryY=0;entryDx=0;entryDy=0;" edge="1" parent="WIyWlLk6GJQsqaUBKTNV-1" source="mqRZgJOydVEEGR6u9X0a-37" target="mqRZgJOydVEEGR6u9X0a-18">
          <mxGeometry relative="1" as="geometry" />
        </mxCell>
        <mxCell id="mqRZgJOydVEEGR6u9X0a-44" value="Yes" style="edgeLabel;html=1;align=center;verticalAlign=middle;resizable=0;points=[];" vertex="1" connectable="0" parent="mqRZgJOydVEEGR6u9X0a-43">
          <mxGeometry x="0.3699" y="-1" relative="1" as="geometry">
            <mxPoint as="offset" />
          </mxGeometry>
        </mxCell>
        <mxCell id="mqRZgJOydVEEGR6u9X0a-46" style="edgeStyle=orthogonalEdgeStyle;rounded=0;orthogonalLoop=1;jettySize=auto;html=1;exitX=0.5;exitY=1;exitDx=0;exitDy=0;entryX=0.5;entryY=0;entryDx=0;entryDy=0;" edge="1" parent="WIyWlLk6GJQsqaUBKTNV-1" source="mqRZgJOydVEEGR6u9X0a-37" target="mqRZgJOydVEEGR6u9X0a-45">
          <mxGeometry relative="1" as="geometry" />
        </mxCell>
        <mxCell id="mqRZgJOydVEEGR6u9X0a-47" value="No" style="edgeLabel;html=1;align=center;verticalAlign=middle;resizable=0;points=[];" vertex="1" connectable="0" parent="mqRZgJOydVEEGR6u9X0a-46">
          <mxGeometry x="-0.0304" y="2" relative="1" as="geometry">
            <mxPoint as="offset" />
          </mxGeometry>
        </mxCell>
        <mxCell id="mqRZgJOydVEEGR6u9X0a-37" value="Is the received candidate&lt;br&gt;better than the store one?" style="rhombus;whiteSpace=wrap;html=1;align=center;" vertex="1" parent="WIyWlLk6GJQsqaUBKTNV-1">
          <mxGeometry x="560" y="285" width="190" height="90" as="geometry" />
        </mxCell>
        <mxCell id="mqRZgJOydVEEGR6u9X0a-45" value="Sends me as new leader" style="rounded=1;whiteSpace=wrap;html=1;fontSize=12;glass=0;strokeWidth=1;shadow=0;" vertex="1" parent="WIyWlLk6GJQsqaUBKTNV-1">
          <mxGeometry x="615" y="455" width="80" height="40" as="geometry" />
        </mxCell>
      </root>
    </mxGraphModel>
  </diagram>
</mxfile>
